<svg xmlns="http://www.w3.org/2000/svg" viewBox="0 0 24 24" fill="none">
  <rect width="24" height="24" rx="6" fill="#FAEDCE"/>
  <path d="M12 4c2 1.3 2 3.5 0 4.8C10 7.5 10 5.3 12 4Z" fill="#C68A12"/>
  <path d="M7 7.5c2.3.3 3.4 2.2 2.7 4.8C7.4 12 6.3 10.1 7 7.5Z" fill="#A2700B"/>
  <path d="M17 7.5c.7 2.6-.4 4.5-2.7 4.8-.7-2.6.4-4.5 2.7-4.8Z" fill="#A2700B"/>
  <path d="M8.5 12.5c2.1.8 2.9 2.7 2 5-2.1-.8-2.9-2.7-2-5Z" fill="#8C6209"/>
  <path d="M15.5 12.5c.9 2.3.1 4.2-2 5-.9-2.3-.1-4.2 2-5Z" fill="#8C6209"/>
</svg>
